# Blender 3.6.0
# www.blender.org
mtllib cornell_room.mtl
o textured_cube
v -1.000000 1.000000 1.000000
v -1.000000 -1.000000 1.000000
v 1.000000 -1.000000 1.000000
v 1.000000 1.000000 1.000000
v -1.000000 1.000000 -1.000000
v -1.000000 -1.000000 -1.000000
v 1.000000 -1.000000 -1.000000
v 1.000000 1.000000 -1.000000
v -1.000000 0.500000 1.000000
v -1.000000 0.000000 1.000000
v -1.000000 -0.500000 1.000000
v -0.500000 0.500000 1.000000
v 0.000000 0.000000 1.000000
v 0.500000 -0.500000 1.000000
v -0.500000 1.000000 1.000000
v 0.000000 1.000000 1.000000
v 0.500000 1.000000 1.000000
v -1.000000 1.000000 0.500000
v -1.000000 1.000000 -0.000000
v -1.000000 1.000000 -0.500000
v -1.000000 0.500000 -1.000000
v -1.000000 -0.000000 -1.000000
v -1.000000 -0.500000 -1.000000
v -0.500000 0.500000 -1.000000
v 0.000000 -0.000000 -1.000000
v 0.500000 -0.500000 -1.000000
v -0.500000 1.000000 -1.000000
v 0.000000 1.000000 -1.000000
v 0.500000 1.000000 -1.000000
v -0.500000 -1.000000 1.000000
v 0.000000 -1.000000 1.000000
v 0.500000 -1.000000 1.000000
v 1.000000 -0.500000 -1.000000
v 1.000000 -0.000000 -1.000000
v 1.000000 0.500000 -1.000000
v -1.000000 0.500000 0.500000
v -1.000000 0.000000 0.000000
v -1.000000 -0.500000 -0.500000
v 1.000000 -0.500000 1.000000
v 1.000000 0.000000 1.000000
v 1.000000 0.500000 1.000000
v -1.000000 -1.000000 0.500000
v -1.000000 -1.000000 0.000000
v -1.000000 -1.000000 -0.500000
v -0.500000 1.000000 0.500000
v 0.000000 1.000000 -0.000000
v 0.500000 1.000000 -0.500000
v -0.500000 -1.000000 -1.000000
v 0.000000 -1.000000 -1.000000
v 0.500000 -1.000000 -1.000000
v -0.500000 -1.000000 0.500000
v 0.000000 -1.000000 0.000000
v 0.500000 -1.000000 -0.500000
v 1.000000 -1.000000 0.500000
v 1.000000 -1.000000 0.000000
v 1.000000 -1.000000 -0.500000
v 1.000000 1.000000 0.500000
v 1.000000 1.000000 -0.000000
v 1.000000 1.000000 -0.500000
v -0.333333 -0.333333 1.000000
v -0.578524 0.157048 1.000000
v -0.645646 -0.177177 1.000000
v -0.578524 -0.578524 1.000000
v -0.177177 -0.645646 1.000000
v 0.157048 -0.578524 1.000000
v -0.177177 -0.177177 1.000000
v 0.333333 0.333333 1.000000
v -0.157048 0.578524 1.000000
v 0.177177 0.177177 1.000000
v 0.578524 -0.157048 1.000000
v 0.645646 0.177177 1.000000
v 0.578524 0.578524 1.000000
v 0.177177 0.645646 1.000000
v 0.333333 0.333333 -1.000000
v -0.157048 0.578524 -1.000000
v 0.177177 0.645646 -1.000000
v 0.578524 0.578524 -1.000000
v 0.645646 0.177177 -1.000000
v 0.578524 -0.157048 -1.000000
v 0.177177 0.177177 -1.000000
v -0.333333 -0.333333 -1.000000
v -0.578524 0.157048 -1.000000
v -0.177177 -0.177177 -1.000000
v 0.157048 -0.578524 -1.000000
v -0.177177 -0.645646 -1.000000
v -0.578524 -0.578524 -1.000000
v -0.645646 -0.177177 -1.000000
v 0.333333 1.000000 0.333333
v -0.157048 1.000000 0.578524
v 0.177177 1.000000 0.645646
v 0.578524 1.000000 0.578524
v 0.645646 1.000000 0.177177
v 0.578524 1.000000 -0.157048
v 0.177177 1.000000 0.177177
v -0.333333 1.000000 -0.333333
v -0.578524 1.000000 0.157048
v -0.177177 1.000000 -0.177177
v 0.157048 1.000000 -0.578524
v -0.177177 1.000000 -0.645646
v -0.578524 1.000000 -0.578524
v -0.645646 1.000000 -0.177177
v -0.333333 -1.000000 -0.333333
v -0.578524 -1.000000 0.157048
v -0.645646 -1.000000 -0.177177
v -0.578524 -1.000000 -0.578524
v -0.177177 -1.000000 -0.645646
v 0.157048 -1.000000 -0.578524
v -0.177177 -1.000000 -0.177177
v 0.333333 -1.000000 0.333333
v -0.157048 -1.000000 0.578524
v 0.177177 -1.000000 0.177177
v 0.578524 -1.000000 -0.157048
v 0.645646 -1.000000 0.177177
v 0.578524 -1.000000 0.578524
v 0.177177 -1.000000 0.645646
v -1.000000 0.333333 -0.333333
v -1.000000 0.578524 0.157048
v -1.000000 0.645646 -0.177177
v -1.000000 0.578524 -0.578524
v -1.000000 0.177177 -0.645646
v -1.000000 -0.157048 -0.578524
v -1.000000 0.177177 -0.177177
v -1.000000 -0.333333 0.333333
v -1.000000 0.157048 0.578524
v -1.000000 -0.177177 0.177177
v -1.000000 -0.578524 -0.157048
v -1.000000 -0.645646 0.177177
v -1.000000 -0.578524 0.578524
v -1.000000 -0.177177 0.645646
vn -0.0000 -0.0000 -1.0000
vn -0.0000 -0.0000 1.0000
vn -0.0000 -1.0000 -0.0000
vn -0.0000 1.0000 -0.0000
vn 1.0000 -0.0000 -0.0000
vt 0.177177 0.411411
vt 0.210738 0.578524
vt 0.411412 0.411412
vt 0.210738 0.210738
vt 0.333333 0.333333
vt 0.578524 0.210738
vt 0.411411 0.177177
vt 0.000000 0.750000
vt 0.000000 1.000000
vt 0.250000 0.750000
vt 0.000000 0.500000
vt 0.500000 0.500000
vt 0.000000 0.000000
vt 0.000000 0.250000
vt 0.250000 0.000000
vt 0.750000 0.250000
vt 1.000000 0.000000
vt 0.750000 0.000000
vt 0.500000 0.000000
vt 0.588589 0.588589
vt 0.421476 0.789262
vt 0.588589 0.822823
vt 0.822823 0.588589
vt 0.789262 0.421476
vt 0.789262 0.789262
vt 0.666667 0.666667
vt 0.250000 1.000000
vt 0.500000 1.000000
vt 1.000000 0.250000
vt 1.000000 0.500000
vt 1.000000 1.000000
vt 1.000000 0.750000
vt 0.750000 1.000000
vt 0.588589 0.822823
vt 0.421476 0.789262
vt 0.789262 0.789262
vt 0.789262 0.421476
vt 0.411411 0.411411
vt 0.177177 0.411412
vt 0.411411 0.177177
s 0
f 62/1/1 61/2/1 66/3/1
f 63/4/1 62/1/1 60/5/1
f 66/3/1 65/6/1 64/7/1
f 9/8/1 1/9/1 12/10/1
f 10/11/1 9/8/1 61/2/1
f 61/2/1 12/10/1 13/12/1
f 2/13/1 11/14/1 63/4/1
f 30/15/1 63/4/1 64/7/1
f 11/14/1 10/11/1 62/1/1
f 14/16/1 3/17/1 32/18/1
f 13/12/1 14/16/1 65/6/1
f 65/6/1 32/18/1 31/19/1
f 69/20/1 68/21/1 73/22/1
f 71/23/1 70/24/1 69/20/1
f 72/25/1 71/23/1 67/26/1
f 12/10/1 1/9/1 15/27/1
f 13/12/1 12/10/1 68/21/1
f 68/21/1 15/27/1 16/28/1
f 39/29/1 3/17/1 14/16/1
f 40/30/1 39/29/1 70/24/1
f 70/24/1 14/16/1 13/12/1
f 4/31/1 41/32/1 72/25/1
f 17/33/1 72/25/1 73/22/1
f 41/32/1 40/30/1 71/23/1
f 76/34/2 75/35/2 80/20/2
f 77/36/2 76/34/2 74/26/2
f 80/20/2 79/37/2 78/23/2
f 27/27/2 5/9/2 24/10/2
f 28/28/2 27/27/2 75/35/2
f 75/35/2 24/10/2 25/12/2
f 8/31/2 29/33/2 77/36/2
f 35/32/2 77/36/2 78/23/2
f 29/33/2 28/28/2 76/34/2
f 26/16/2 7/17/2 33/29/2
f 25/12/2 26/16/2 79/37/2
f 79/37/2 33/29/2 34/30/2
f 83/38/2 82/2/2 87/39/2
f 85/40/2 84/6/2 83/38/2
f 86/4/2 85/40/2 81/5/2
f 24/10/2 5/9/2 21/8/2
f 25/12/2 24/10/2 82/2/2
f 82/2/2 21/8/2 22/11/2
f 50/18/2 7/17/2 26/16/2
f 49/19/2 50/18/2 84/6/2
f 84/6/2 26/16/2 25/12/2
f 6/13/2 48/15/2 86/4/2
f 23/14/2 86/4/2 87/39/2
f 48/15/2 49/19/2 85/40/2
f 90/34/3 89/35/3 94/20/3
f 91/36/3 90/34/3 88/26/3
f 94/20/3 93/37/3 92/23/3
f 15/27/3 1/9/3 45/10/3
f 16/28/3 15/27/3 89/35/3
f 89/35/3 45/10/3 46/12/3
f 4/31/3 17/33/3 91/36/3
f 57/32/3 91/36/3 92/23/3
f 17/33/3 16/28/3 90/34/3
f 47/16/3 8/17/3 59/29/3
f 46/12/3 47/16/3 93/37/3
f 93/37/3 59/29/3 58/30/3
f 97/38/3 96/2/3 101/39/3
f 99/40/3 98/6/3 97/38/3
f 100/4/3 99/40/3 95/5/3
f 45/10/3 1/9/3 18/8/3
f 46/12/3 45/10/3 96/2/3
f 96/2/3 18/8/3 19/11/3
f 29/18/3 8/17/3 47/16/3
f 28/19/3 29/18/3 98/6/3
f 98/6/3 47/16/3 46/12/3
f 5/13/3 27/15/3 100/4/3
f 20/14/3 100/4/3 101/39/3
f 27/15/3 28/19/3 99/40/3
f 104/1/4 103/2/4 108/3/4
f 105/4/4 104/1/4 102/5/4
f 108/3/4 107/6/4 106/7/4
f 42/8/4 2/9/4 51/10/4
f 43/11/4 42/8/4 103/2/4
f 103/2/4 51/10/4 52/12/4
f 6/13/4 44/14/4 105/4/4
f 48/15/4 105/4/4 106/7/4
f 44/14/4 43/11/4 104/1/4
f 53/16/4 7/17/4 50/18/4
f 52/12/4 53/16/4 107/6/4
f 107/6/4 50/18/4 49/19/4
f 111/20/4 110/21/4 115/22/4
f 113/23/4 112/24/4 111/20/4
f 114/25/4 113/23/4 109/26/4
f 51/10/4 2/9/4 30/27/4
f 52/12/4 51/10/4 110/21/4
f 110/21/4 30/27/4 31/28/4
f 56/29/4 7/17/4 53/16/4
f 55/30/4 56/29/4 112/24/4
f 112/24/4 53/16/4 52/12/4
f 3/31/4 54/32/4 114/25/4
f 32/33/4 114/25/4 115/22/4
f 54/32/4 55/30/4 113/23/4
f 118/34/5 117/35/5 122/20/5
f 119/36/5 118/34/5 116/26/5
f 122/20/5 121/37/5 120/23/5
f 18/27/5 1/9/5 36/10/5
f 19/28/5 18/27/5 117/35/5
f 117/35/5 36/10/5 37/12/5
f 5/31/5 20/33/5 119/36/5
f 21/32/5 119/36/5 120/23/5
f 20/33/5 19/28/5 118/34/5
f 38/16/5 6/17/5 23/29/5
f 37/12/5 38/16/5 121/37/5
f 121/37/5 23/29/5 22/30/5
f 125/38/5 124/2/5 129/39/5
f 127/40/5 126/6/5 125/38/5
f 128/4/5 127/40/5 123/5/5
f 36/10/5 1/9/5 9/8/5
f 37/12/5 36/10/5 124/2/5
f 124/2/5 9/8/5 10/11/5
f 44/18/5 6/17/5 38/16/5
f 43/19/5 44/18/5 126/6/5
f 126/6/5 38/16/5 37/12/5
f 2/13/5 42/15/5 128/4/5
f 11/14/5 128/4/5 129/39/5
f 42/15/5 43/19/5 127/40/5
f 62/1/1 66/3/1 60/5/1
f 63/4/1 60/5/1 64/7/1
f 66/3/1 64/7/1 60/5/1
f 9/8/1 12/10/1 61/2/1
f 10/11/1 61/2/1 62/1/1
f 61/2/1 13/12/1 66/3/1
f 2/13/1 63/4/1 30/15/1
f 30/15/1 64/7/1 31/19/1
f 11/14/1 62/1/1 63/4/1
f 14/16/1 32/18/1 65/6/1
f 13/12/1 65/6/1 66/3/1
f 65/6/1 31/19/1 64/7/1
f 69/20/1 73/22/1 67/26/1
f 71/23/1 69/20/1 67/26/1
f 72/25/1 67/26/1 73/22/1
f 12/10/1 15/27/1 68/21/1
f 13/12/1 68/21/1 69/20/1
f 68/21/1 16/28/1 73/22/1
f 39/29/1 14/16/1 70/24/1
f 40/30/1 70/24/1 71/23/1
f 70/24/1 13/12/1 69/20/1
f 4/31/1 72/25/1 17/33/1
f 17/33/1 73/22/1 16/28/1
f 41/32/1 71/23/1 72/25/1
f 76/34/2 80/20/2 74/26/2
f 77/36/2 74/26/2 78/23/2
f 80/20/2 78/23/2 74/26/2
f 27/27/2 24/10/2 75/35/2
f 28/28/2 75/35/2 76/34/2
f 75/35/2 25/12/2 80/20/2
f 8/31/2 77/36/2 35/32/2
f 35/32/2 78/23/2 34/30/2
f 29/33/2 76/34/2 77/36/2
f 26/16/2 33/29/2 79/37/2
f 25/12/2 79/37/2 80/20/2
f 79/37/2 34/30/2 78/23/2
f 83/38/2 87/39/2 81/5/2
f 85/40/2 83/38/2 81/5/2
f 86/4/2 81/5/2 87/39/2
f 24/10/2 21/8/2 82/2/2
f 25/12/2 82/2/2 83/38/2
f 82/2/2 22/11/2 87/39/2
f 50/18/2 26/16/2 84/6/2
f 49/19/2 84/6/2 85/40/2
f 84/6/2 25/12/2 83/38/2
f 6/13/2 86/4/2 23/14/2
f 23/14/2 87/39/2 22/11/2
f 48/15/2 85/40/2 86/4/2
f 90/34/3 94/20/3 88/26/3
f 91/36/3 88/26/3 92/23/3
f 94/20/3 92/23/3 88/26/3
f 15/27/3 45/10/3 89/35/3
f 16/28/3 89/35/3 90/34/3
f 89/35/3 46/12/3 94/20/3
f 4/31/3 91/36/3 57/32/3
f 57/32/3 92/23/3 58/30/3
f 17/33/3 90/34/3 91/36/3
f 47/16/3 59/29/3 93/37/3
f 46/12/3 93/37/3 94/20/3
f 93/37/3 58/30/3 92/23/3
f 97/38/3 101/39/3 95/5/3
f 99/40/3 97/38/3 95/5/3
f 100/4/3 95/5/3 101/39/3
f 45/10/3 18/8/3 96/2/3
f 46/12/3 96/2/3 97/38/3
f 96/2/3 19/11/3 101/39/3
f 29/18/3 47/16/3 98/6/3
f 28/19/3 98/6/3 99/40/3
f 98/6/3 46/12/3 97/38/3
f 5/13/3 100/4/3 20/14/3
f 20/14/3 101/39/3 19/11/3
f 27/15/3 99/40/3 100/4/3
f 104/1/4 108/3/4 102/5/4
f 105/4/4 102/5/4 106/7/4
f 108/3/4 106/7/4 102/5/4
f 42/8/4 51/10/4 103/2/4
f 43/11/4 103/2/4 104/1/4
f 103/2/4 52/12/4 108/3/4
f 6/13/4 105/4/4 48/15/4
f 48/15/4 106/7/4 49/19/4
f 44/14/4 104/1/4 105/4/4
f 53/16/4 50/18/4 107/6/4
f 52/12/4 107/6/4 108/3/4
f 107/6/4 49/19/4 106/7/4
f 111/20/4 115/22/4 109/26/4
f 113/23/4 111/20/4 109/26/4
f 114/25/4 109/26/4 115/22/4
f 51/10/4 30/27/4 110/21/4
f 52/12/4 110/21/4 111/20/4
f 110/21/4 31/28/4 115/22/4
f 56/29/4 53/16/4 112/24/4
f 55/30/4 112/24/4 113/23/4
f 112/24/4 52/12/4 111/20/4
f 3/31/4 114/25/4 32/33/4
f 32/33/4 115/22/4 31/28/4
f 54/32/4 113/23/4 114/25/4
f 118/34/5 122/20/5 116/26/5
f 119/36/5 116/26/5 120/23/5
f 122/20/5 120/23/5 116/26/5
f 18/27/5 36/10/5 117/35/5
f 19/28/5 117/35/5 118/34/5
f 117/35/5 37/12/5 122/20/5
f 5/31/5 119/36/5 21/32/5
f 21/32/5 120/23/5 22/30/5
f 20/33/5 118/34/5 119/36/5
f 38/16/5 23/29/5 121/37/5
f 37/12/5 121/37/5 122/20/5
f 121/37/5 22/30/5 120/23/5
f 125/38/5 129/39/5 123/5/5
f 127/40/5 125/38/5 123/5/5
f 128/4/5 123/5/5 129/39/5
f 36/10/5 9/8/5 124/2/5
f 37/12/5 124/2/5 125/38/5
f 124/2/5 10/11/5 129/39/5
f 44/18/5 38/16/5 126/6/5
f 43/19/5 126/6/5 127/40/5
f 126/6/5 37/12/5 125/38/5
f 2/13/5 128/4/5 11/14/5
f 11/14/5 129/39/5 10/11/5
f 42/15/5 127/40/5 128/4/5
